<?xml version="1.0" encoding="UTF-8" standalone="no"?>
<!DOCTYPE svg PUBLIC "-//W3C//DTD SVG 1.1//EN"
        "http://www.w3.org/Graphics/SVG/1.1/DTD/svg11.dtd">
<!-- Generated by graphviz version 2.47.3 (20210619.1520)
 -->
<!-- Title: G Pages: 1 -->
<svg width="812pt" height="104pt"
     viewBox="0.00 0.00 812.20 104.11" xmlns="http://www.w3.org/2000/svg" xmlns:xlink="http://www.w3.org/1999/xlink">
    <g id="graph0" class="graph" transform="scale(1 1) rotate(0) translate(21.6 82.51)">
        <title>G</title>
        <polygon fill="#111111" stroke="transparent"
                 points="-21.6,21.6 -21.6,-82.51 790.6,-82.51 790.6,21.6 -21.6,21.6"/>
        <!-- app/rootReducer.ts -->
        <g id="node1" class="node">
            <title>app/rootReducer.ts</title>
            <path fill="none" stroke="#ff6c60"
                  d="M131.33,-25C131.33,-25 7.67,-25 7.67,-25 3.83,-25 0,-21.16 0,-17.33 0,-17.33 0,-9.66 0,-9.66 0,-5.83 3.83,-2 7.67,-2 7.67,-2 131.33,-2 131.33,-2 135.17,-2 139,-5.83 139,-9.66 139,-9.66 139,-17.33 139,-17.33 139,-21.16 135.17,-25 131.33,-25"/>
            <text text-anchor="middle" x="69.5" y="-9.8" font-family="Arial" font-size="14.00" fill="#ff6c60">
                app/rootReducer.ts
            </text>
        </g>
        <!-- features/Basket/basketSlice.ts -->
        <g id="node2" class="node">
            <title>features/Basket/basketSlice.ts</title>
            <path fill="none" stroke="#ff6c60"
                  d="M375.33,-45C375.33,-45 182.67,-45 182.67,-45 178.83,-45 175,-41.16 175,-37.33 175,-37.33 175,-29.66 175,-29.66 175,-25.83 178.83,-22 182.67,-22 182.67,-22 375.33,-22 375.33,-22 379.17,-22 383,-25.83 383,-29.66 383,-29.66 383,-37.33 383,-37.33 383,-41.16 379.17,-45 375.33,-45"/>
            <text text-anchor="middle" x="279" y="-29.8" font-family="Arial" font-size="14.00" fill="#ff6c60">
                features/Basket/basketSlice.ts
            </text>
        </g>
        <!-- app/rootReducer.ts&#45;&gt;features/Basket/basketSlice.ts -->
        <g id="edge1" class="edge">
            <title>app/rootReducer.ts&#45;&gt;features/Basket/basketSlice.ts</title>
            <path fill="none" stroke="#757575" d="M139.02,-20.1C147.25,-20.89 155.81,-21.72 164.47,-22.56"/>
            <polygon fill="#757575" stroke="#757575" points="164.37,-26.06 174.66,-23.54 165.04,-19.09 164.37,-26.06"/>
        </g>
        <!-- app/store.ts -->
        <g id="node3" class="node">
            <title>app/store.ts</title>
            <path fill="none" stroke="#ff6c60"
                  d="M761.33,-45C761.33,-45 684.67,-45 684.67,-45 680.83,-45 677,-41.16 677,-37.33 677,-37.33 677,-29.66 677,-29.66 677,-25.83 680.83,-22 684.67,-22 684.67,-22 761.33,-22 761.33,-22 765.17,-22 769,-25.83 769,-29.66 769,-29.66 769,-37.33 769,-37.33 769,-41.16 765.17,-45 761.33,-45"/>
            <text text-anchor="middle" x="723" y="-29.8" font-family="Arial" font-size="14.00" fill="#ff6c60">
                app/store.ts
            </text>
        </g>
        <!-- features/Basket/basketSlice.ts&#45;&gt;app/store.ts -->
        <g id="edge3" class="edge">
            <title>features/Basket/basketSlice.ts&#45;&gt;app/store.ts</title>
            <path fill="none" stroke="#757575"
                  d="M346.25,-45C369.21,-48.46 395.17,-51.79 419,-53.5 517.41,-60.54 543.06,-65.41 641,-53.5 651.57,-52.21 662.75,-50.02 673.31,-47.54"/>
            <polygon fill="#757575" stroke="#757575" points="674.34,-50.89 683.22,-45.1 672.67,-44.09 674.34,-50.89"/>
        </g>
        <!-- features/Basket/basketThunks.ts -->
        <g id="node4" class="node">
            <title>features/Basket/basketThunks.ts</title>
            <path fill="none" stroke="#ff6c60"
                  d="M633.33,-45C633.33,-45 426.67,-45 426.67,-45 422.83,-45 419,-41.16 419,-37.33 419,-37.33 419,-29.66 419,-29.66 419,-25.83 422.83,-22 426.67,-22 426.67,-22 633.33,-22 633.33,-22 637.17,-22 641,-25.83 641,-29.66 641,-29.66 641,-37.33 641,-37.33 641,-41.16 637.17,-45 633.33,-45"/>
            <text text-anchor="middle" x="530" y="-29.8" font-family="Arial" font-size="14.00" fill="#ff6c60">
                features/Basket/basketThunks.ts
            </text>
        </g>
        <!-- features/Basket/basketSlice.ts&#45;&gt;features/Basket/basketThunks.ts -->
        <g id="edge4" class="edge">
            <title>features/Basket/basketSlice.ts&#45;&gt;features/Basket/basketThunks.ts</title>
            <path fill="none" stroke="#757575" d="M383.08,-26.84C391.54,-26.77 400.14,-26.74 408.71,-26.75"/>
            <polygon fill="#757575" stroke="#757575" points="408.74,-30.25 418.75,-26.79 408.76,-23.25 408.74,-30.25"/>
        </g>
        <!-- app/store.ts&#45;&gt;app/rootReducer.ts -->
        <g id="edge2" class="edge">
            <title>app/store.ts&#45;&gt;app/rootReducer.ts</title>
            <path fill="none" stroke="#757575"
                  d="M685.69,-21.99C671.85,-18.16 655.84,-14.39 641,-12.5 435.55,13.7 382.11,-11.51 175,-12.5 166.65,-12.54 157.93,-12.6 149.24,-12.66"/>
            <polygon fill="#757575" stroke="#757575" points="149.05,-9.16 139.08,-12.75 149.11,-16.16 149.05,-9.16"/>
        </g>
        <!-- features/Basket/basketThunks.ts&#45;&gt;features/Basket/basketSlice.ts -->
        <g id="edge6" class="edge">
            <title>features/Basket/basketThunks.ts&#45;&gt;features/Basket/basketSlice.ts</title>
            <path fill="none" stroke="#757575" d="M418.75,-40.21C410.32,-40.25 401.79,-40.26 393.34,-40.22"/>
            <polygon fill="#757575" stroke="#757575" points="393.1,-36.72 383.08,-40.16 393.05,-43.72 393.1,-36.72"/>
        </g>
        <!-- features/Basket/basketThunks.ts&#45;&gt;app/store.ts -->
        <g id="edge5" class="edge">
            <title>features/Basket/basketThunks.ts&#45;&gt;app/store.ts</title>
            <path fill="none" stroke="#757575" d="M641.28,-33.5C649.9,-33.5 658.36,-33.5 666.37,-33.5"/>
            <polygon fill="#757575" stroke="#757575" points="666.61,-37 676.61,-33.5 666.61,-30 666.61,-37"/>
        </g>
    </g>
</svg>
